<?xml version="1.0" standalone="no"?>
<!DOCTYPE svg PUBLIC "-//W3C//DTD SVG 20010904//EN"
 "http://www.w3.org/TR/2001/REC-SVG-20010904/DTD/svg10.dtd">
<svg version="1.0" xmlns="http://www.w3.org/2000/svg"
 width="2399.000000pt" height="1673.000000pt" viewBox="0 0 2399.000000 1673.000000"
 preserveAspectRatio="xMidYMid meet">

<g transform="translate(0.000000,1673.000000) scale(0.100000,-0.100000)"
fill="#000000" stroke="none">
<path d="M17105 16709 c-1437 -54 -2904 -398 -4845 -1134 -444 -169 -641 -247
-1925 -768 -1757 -712 -2608 -1001 -3520 -1197 -842 -181 -1636 -221 -2315
-119 -784 118 -1487 403 -2237 906 -251 168 -385 229 -596 275 -145 31 -389
31 -534 0 -270 -58 -492 -174 -682 -357 -536 -515 -575 -1332 -89 -1896 91
-107 193 -188 433 -348 1154 -768 2355 -1211 3645 -1345 434 -45 1056 -55
1470 -22 1296 101 2524 413 4300 1093 288 110 739 290 1435 573 720 293 1304
525 1595 635 1479 557 2494 823 3536 927 188 19 282 22 664 22 469 1 570 -5
910 -50 853 -114 1701 -418 2515 -902 282 -168 557 -354 894 -605 268 -200
532 -290 846 -290 359 0 684 131 943 377 211 202 346 447 409 746 25 118 25
382 0 500 -58 273 -176 503 -355 692 -90 94 -219 197 -487 390 -1550 1113
-3156 1729 -4885 1873 -379 31 -739 39 -1125 24z"/>
<path d="M16995 11364 c-27 -2 -124 -8 -215 -14 -801 -52 -1715 -219 -2641
-484 -929 -266 -1739 -561 -3459 -1261 -1137 -463 -1644 -660 -2175 -847
-1901 -668 -3248 -822 -4485 -513 -588 148 -1124 392 -1714 781 -120 80 -254
163 -298 185 -305 153 -670 185 -1001 88 -417 -123 -760 -450 -906 -862 -56
-160 -75 -272 -75 -457 0 -185 19 -297 75 -457 86 -244 259 -481 463 -635 226
-170 659 -438 1011 -626 1699 -904 3578 -1141 5670 -716 1090 222 2167 577
3985 1314 1773 719 2215 890 2885 1117 1043 352 1866 539 2735 620 232 21 941
25 1150 5 1332 -125 2443 -573 3666 -1479 211 -156 289 -205 416 -257 247
-102 526 -129 786 -76 135 27 209 53 337 115 390 189 665 549 752 982 26 133
24 386 -5 520 -79 363 -260 634 -587 880 -605 453 -1150 794 -1755 1096 -444
222 -832 384 -1275 531 -707 234 -1345 362 -2180 437 -114 10 -1054 21 -1160
13z"/>
<path d="M16950 6020 c-1355 -78 -2690 -389 -4425 -1030 -475 -175 -938 -359
-2235 -885 -1755 -712 -2676 -1020 -3595 -1204 -537 -107 -911 -146 -1405
-145 -401 0 -621 18 -958 79 -701 128 -1385 417 -2065 874 -249 167 -353 217
-551 268 -138 34 -384 43 -536 19 -280 -44 -545 -180 -751 -386 -530 -528
-544 -1372 -32 -1911 107 -112 163 -156 389 -307 1140 -761 2332 -1205 3619
-1346 327 -36 436 -41 890 -41 554 1 792 17 1310 90 814 115 1670 332 2660
673 606 209 1085 393 2130 817 1522 617 1867 752 2516 980 2284 803 3978 922
5574 390 696 -232 1413 -610 2073 -1095 78 -58 184 -135 235 -173 157 -115
349 -199 558 -244 130 -28 391 -25 529 5 989 220 1424 1356 828 2164 -85 116
-190 216 -353 339 -1325 996 -2657 1617 -4090 1904 -359 72 -667 115 -1085
151 -214 18 -999 27 -1230 14z"/>
</g>
</svg>
